<?xml version="1.0" ?><svg viewBox="0 0 512 512" xmlns="http://www.w3.org/2000/svg"><title/><g id="Kids_block"><path d="M189.3081,252.3467H322.6919a17.94,17.94,0,0,0,17.9194-17.919V101.0435A17.94,17.94,0,0,0,322.6919,83.124H213.8066a2,2,0,0,0,0,4H322.6919a13.9351,13.9351,0,0,1,13.9194,13.92V234.4277a13.935,13.935,0,0,1-13.9194,13.919H189.3081a13.935,13.935,0,0,1-13.9194-13.919V101.0435A13.9351,13.9351,0,0,1,189.3081,87.124a2,2,0,0,0,0-4,17.94,17.94,0,0,0-17.9194,17.92V234.4277A17.94,17.94,0,0,0,189.3081,252.3467Z"/><path d="M188.3486,103.0039V232.4678a2.9225,2.9225,0,0,0,2.919,2.9189H320.7324a2.9225,2.9225,0,0,0,2.919-2.9189V103.0039a2.9226,2.9226,0,0,0-2.92-2.9194H191.2681A2.9226,2.9226,0,0,0,188.3486,103.0039Zm4,1.0806H319.6514V231.3867H192.3486Z"/><path d="M234.4277,259.6533H101.0435a17.94,17.94,0,0,0-17.9195,17.919V410.9565a17.94,17.94,0,0,0,17.92,17.9195H234.4277a17.94,17.94,0,0,0,17.919-17.9195V277.5723A17.94,17.94,0,0,0,234.4277,259.6533Zm13.919,151.3032a13.9351,13.9351,0,0,1-13.919,13.9195H101.0435A13.9352,13.9352,0,0,1,87.124,410.9565V277.5723a13.9351,13.9351,0,0,1,13.92-13.919H234.4277a13.935,13.935,0,0,1,13.919,13.919Z"/><path d="M232.4678,276.6133H103.0034a2.9227,2.9227,0,0,0-2.9194,2.9194V408.9966a2.9227,2.9227,0,0,0,2.9194,2.9194H232.4678a2.9224,2.9224,0,0,0,2.9189-2.9189V279.5322A2.9224,2.9224,0,0,0,232.4678,276.6133ZM231.3867,407.916H104.084V280.6133H231.3867Z"/><path d="M410.9565,259.6533H277.5723a17.94,17.94,0,0,0-17.919,17.919V410.9565a17.94,17.94,0,0,0,17.919,17.9195H386.4858a2,2,0,0,0,0-4H277.5723a13.9351,13.9351,0,0,1-13.919-13.9195V277.5723a13.935,13.935,0,0,1,13.919-13.919H410.9565a13.9351,13.9351,0,0,1,13.9195,13.919V410.9565a13.9352,13.9352,0,0,1-13.9195,13.9195,2,2,0,0,0,0,4,17.94,17.94,0,0,0,17.9195-17.9195V277.5723A17.94,17.94,0,0,0,410.9565,259.6533Z"/><path d="M411.916,408.9971V279.5327a2.9227,2.9227,0,0,0-2.9194-2.9194H279.5322a2.9224,2.9224,0,0,0-2.9189,2.9189V408.9971a2.9224,2.9224,0,0,0,2.9189,2.9189H408.9971A2.9224,2.9224,0,0,0,411.916,408.9971Zm-4-1.0811H280.6133V280.6133H407.916Z"/><path d="M197.1387,364.479V359.1A22.6013,22.6013,0,0,0,192.9,345.9375a22.825,22.825,0,0,0,2.6752-4.9063,22.4522,22.4522,0,0,0,1.1066-3.7333l0-.001a22.7313,22.7313,0,0,0,.4571-4.54v-5.3794a22.6113,22.6113,0,0,0-22.586-22.5859H138.332v82.2729h36.2207A22.6113,22.6113,0,0,0,197.1387,364.479ZM142.332,308.792h32.2207a18.6067,18.6067,0,0,1,18.586,18.5859v5.3794a18.741,18.741,0,0,1-.376,3.74v.0007a18.4816,18.4816,0,0,1-.91,3.0676,18.8362,18.8362,0,0,1-1.6654,3.2392,22.546,22.546,0,0,0-15.6349-6.2909h-18.915a2,2,0,0,0,0,4h18.915a18.543,18.543,0,0,1,13.1055,5.4348,18.4918,18.4918,0,0,1-13.1055,5.3948H142.332V308.792Zm0,46.5513h32.2207a22.4772,22.4772,0,0,0,15.6327-6.2647,18.5911,18.5911,0,0,1,2.9533,10.021v5.3794a18.6067,18.6067,0,0,1-18.586,18.5859H142.332Z"/><path d="M256,123.55l-43.0347,85.9063H275.76a2,2,0,0,0,0-4H219.4429L256,132.4805l38.0078,75.8716a2,2,0,0,0,3.5762-1.792Z"/><path d="M346.2812,385.1025h25.4976V363.9272a2,2,0,0,0-4,0v17.1753H346.2812a36.8379,36.8379,0,0,1,0-73.6757h21.4976v15.1753H346.2817a21.6626,21.6626,0,1,0,0,43.3251h8.2657a2,2,0,0,0,0-4h-8.2657a17.6626,17.6626,0,1,1,0-35.3251h23.4971a2,2,0,0,0,2-2V303.4268H346.2812a40.8379,40.8379,0,0,0,0,81.6757Z"/></g></svg>